<svg width="15" height="15" viewBox="0 0 15 15" fill="none" xmlns="http://www.w3.org/2000/svg">
<path fill-rule="evenodd" clip-rule="evenodd" d="M7.5 1C11.0875 1 14 3.91254 14 7.5C14 11.0875 11.0875 14 7.5 14C3.91254 14 1 11.0875 1 7.5C1 3.91254 3.91254 1 7.5 1ZM7.5 1.54167C10.7885 1.54167 13.4583 4.21154 13.4583 7.5C13.4583 10.7885 10.7885 13.4583 7.5 13.4583C4.21154 13.4583 1.54167 10.7885 1.54167 7.5C1.54167 4.21154 4.21154 1.54167 7.5 1.54167ZM7.5 7.5H10.75V8.04167H6.95833V3.16667H7.5V7.5Z" fill="#B3B3B3" stroke="#B3B3B3" stroke-width="0.3"/>
</svg>
